<svg width="461" height="70" viewBox="0 0 461 70" fill="none" xmlns="http://www.w3.org/2000/svg">
<path d="M46.424 20.808C46.232 20.552 45.56 20.072 44.408 19.368C43.256 18.664 41.816 17.928 40.088 17.16C38.36 16.328 36.472 15.656 34.424 15.144C32.376 14.568 30.328 14.28 28.28 14.28C22.648 14.28 19.832 16.168 19.832 19.944C19.832 22.248 21.048 23.88 23.48 24.84C25.976 25.8 29.528 26.952 34.136 28.296C38.488 29.512 42.232 30.92 45.368 32.52C48.568 34.056 51.032 36.136 52.76 38.76C54.488 41.32 55.352 44.712 55.352 48.936C55.352 52.776 54.648 56.04 53.24 58.728C51.832 61.352 49.912 63.496 47.48 65.16C45.048 66.76 42.296 67.944 39.224 68.712C36.216 69.416 33.08 69.768 29.816 69.768C24.76 69.768 19.64 69.032 14.456 67.56C9.272 66.024 4.696 63.944 0.728 61.32L7.64 47.592C7.896 47.912 8.728 48.52 10.136 49.416C11.544 50.248 13.304 51.144 15.416 52.104C17.528 53.064 19.832 53.896 22.328 54.6C24.888 55.24 27.48 55.56 30.104 55.56C35.672 55.56 38.456 53.864 38.456 50.472C38.456 48.744 37.72 47.4 36.248 46.44C34.84 45.416 32.888 44.552 30.392 43.848C27.896 43.08 25.08 42.216 21.944 41.256C15.672 39.336 11.032 37 8.024 34.248C5.08 31.496 3.608 27.56 3.608 22.44C3.608 17.64 4.728 13.608 6.968 10.344C9.272 7.016 12.344 4.52 16.184 2.856C20.024 1.128 24.216 0.263998 28.76 0.263998C33.56 0.263998 38.104 1.096 42.392 2.75999C46.68 4.36 50.328 6.024 53.336 7.752L46.424 20.808ZM90.83 66.312C88.718 67.208 86.286 68.04 83.534 68.808C80.846 69.576 78.126 69.96 75.374 69.96C72.814 69.96 70.478 69.544 68.366 68.712C66.254 67.816 64.558 66.376 63.278 64.392C61.998 62.408 61.358 59.784 61.358 56.52V30.216H54.926V18.6H61.358V2.568H76.718V18.6H86.99V30.216H76.718V51.24C76.718 52.904 77.134 54.12 77.966 54.888C78.798 55.592 79.854 55.944 81.134 55.944C82.286 55.944 83.47 55.752 84.686 55.368C85.902 54.984 86.958 54.568 87.854 54.12L90.83 66.312ZM116.413 69.96C110.653 69.96 105.757 68.744 101.725 66.312C97.7565 63.88 94.7165 60.68 92.6045 56.712C90.4925 52.744 89.4365 48.456 89.4365 43.848C89.4365 39.176 90.4925 34.856 92.6045 30.888C94.7165 26.92 97.7885 23.72 101.821 21.288C105.853 18.856 110.717 17.64 116.413 17.64C122.109 17.64 126.973 18.856 131.005 21.288C135.037 23.72 138.109 26.92 140.221 30.888C142.333 34.856 143.389 39.176 143.389 43.848C143.389 48.456 142.333 52.744 140.221 56.712C138.109 60.68 135.037 63.88 131.005 66.312C126.973 68.744 122.109 69.96 116.413 69.96ZM105.181 43.848C105.181 47.752 106.237 50.92 108.349 53.352C110.525 55.784 113.213 57 116.413 57C119.549 57 122.173 55.784 124.285 53.352C126.461 50.92 127.549 47.752 127.549 43.848C127.549 39.944 126.461 36.776 124.285 34.344C122.173 31.912 119.549 30.696 116.413 30.696C113.213 30.696 110.525 31.912 108.349 34.344C106.237 36.776 105.181 39.944 105.181 43.848ZM179.134 31.752C175.422 31.816 172.062 32.424 169.054 33.576C166.046 34.728 163.87 36.456 162.526 38.76V69H147.166V18.6H161.278V28.776C163.006 25.384 165.246 22.728 167.998 20.808C170.75 18.888 173.63 17.896 176.638 17.832C177.918 17.832 178.75 17.864 179.134 17.928V31.752ZM205.485 69.96C199.789 69.96 194.925 68.776 190.893 66.408C186.861 64.04 183.757 60.904 181.581 57C179.469 53.096 178.413 48.872 178.413 44.328C178.413 39.464 179.469 35.016 181.581 30.984C183.693 26.952 186.765 23.72 190.797 21.288C194.829 18.856 199.725 17.64 205.485 17.64C211.181 17.64 216.045 18.856 220.077 21.288C224.109 23.72 227.149 26.92 229.197 30.888C231.309 34.856 232.365 39.112 232.365 43.656C232.365 45.512 232.237 47.144 231.981 48.552H194.733C194.989 51.944 196.205 54.536 198.381 56.328C200.621 58.056 203.149 58.92 205.965 58.92C208.205 58.92 210.349 58.376 212.397 57.288C214.445 56.2 215.853 54.728 216.621 52.872L229.677 56.52C227.693 60.488 224.589 63.72 220.365 66.216C216.205 68.712 211.245 69.96 205.485 69.96ZM194.349 39.144H216.237C215.917 35.944 214.733 33.416 212.685 31.56C210.701 29.64 208.237 28.68 205.293 28.68C202.349 28.68 199.853 29.64 197.805 31.56C195.821 33.48 194.669 36.008 194.349 39.144ZM236.172 69V0.839996H282.444V14.664H251.916V29.352H277.068V42.12H251.916V69H236.172ZM315.927 31.752C312.215 31.816 308.855 32.424 305.847 33.576C302.839 34.728 300.663 36.456 299.319 38.76V69H283.959V18.6H298.071V28.776C299.799 25.384 302.039 22.728 304.791 20.808C307.543 18.888 310.423 17.896 313.431 17.832C314.711 17.832 315.543 17.864 315.927 17.928V31.752ZM342.181 69.96C336.421 69.96 331.525 68.744 327.493 66.312C323.525 63.88 320.485 60.68 318.373 56.712C316.261 52.744 315.205 48.456 315.205 43.848C315.205 39.176 316.261 34.856 318.373 30.888C320.485 26.92 323.557 23.72 327.589 21.288C331.621 18.856 336.485 17.64 342.181 17.64C347.877 17.64 352.741 18.856 356.773 21.288C360.805 23.72 363.877 26.92 365.989 30.888C368.101 34.856 369.157 39.176 369.157 43.848C369.157 48.456 368.101 52.744 365.989 56.712C363.877 60.68 360.805 63.88 356.773 66.312C352.741 68.744 347.877 69.96 342.181 69.96ZM330.949 43.848C330.949 47.752 332.005 50.92 334.117 53.352C336.293 55.784 338.981 57 342.181 57C345.317 57 347.941 55.784 350.053 53.352C352.229 50.92 353.317 47.752 353.317 43.848C353.317 39.944 352.229 36.776 350.053 34.344C347.941 31.912 345.317 30.696 342.181 30.696C338.981 30.696 336.293 31.912 334.117 34.344C332.005 36.776 330.949 39.944 330.949 43.848ZM421.511 69H406.151V40.68C406.151 37.352 405.511 34.952 404.231 33.48C403.015 31.944 401.383 31.176 399.335 31.176C397.223 31.176 395.079 32.008 392.903 33.672C390.727 35.336 389.191 37.48 388.295 40.104V69H372.935V18.6H386.759V27.048C388.615 24.104 391.239 21.8 394.631 20.136C398.023 18.472 401.927 17.64 406.343 17.64C409.607 17.64 412.231 18.248 414.215 19.464C416.263 20.616 417.799 22.152 418.823 24.072C419.911 25.928 420.615 27.976 420.935 30.216C421.319 32.456 421.511 34.632 421.511 36.744V69ZM460.423 66.312C458.311 67.208 455.879 68.04 453.127 68.808C450.439 69.576 447.719 69.96 444.967 69.96C442.407 69.96 440.071 69.544 437.959 68.712C435.847 67.816 434.151 66.376 432.871 64.392C431.591 62.408 430.951 59.784 430.951 56.52V30.216H424.519V18.6H430.951V2.568H446.311V18.6H456.583V30.216H446.311V51.24C446.311 52.904 446.727 54.12 447.559 54.888C448.391 55.592 449.447 55.944 450.727 55.944C451.879 55.944 453.063 55.752 454.279 55.368C455.495 54.984 456.551 54.568 457.447 54.12L460.423 66.312Z" fill="#3B82F6"/>
</svg>
