<svg width="32" height="31" viewBox="0 0 32 31" fill="none" xmlns="http://www.w3.org/2000/svg">
<g clip-path="url(#clip0_51_527)">
<path d="M16 1.90625L20.2812 10.8438L30.0625 12.2812L23 19.3438L23.2187 20.75L24.6562 29.1875L16 24.5625L7.34372 29.1875L8.78122 20.75L8.99997 19.3438L1.93747 12.2812L11.6875 10.8438L12.3437 9.5L16 1.90625ZM16 0C15.5416 0 15.125 0.114583 14.75 0.34375C14.375 0.572917 14.0937 0.885417 13.9062 1.28125L10.2812 8.8125L1.93747 10.0312C1.52081 10.0938 1.14581 10.2604 0.812473 10.5312C0.47914 10.8021 0.239557 11.1458 0.0937235 11.5625C-0.197943 12.4167 -0.0104432 13.1771 0.656223 13.8438L6.74997 19.9375L5.34372 28.4062C5.26039 28.8229 5.30726 29.2292 5.48435 29.625C5.66143 30.0208 5.92706 30.3438 6.28122 30.5938C6.34372 30.6354 6.41143 30.6771 6.48435 30.7188C6.55726 30.7604 6.63018 30.7969 6.7031 30.8281C6.77601 30.8594 6.84893 30.8854 6.92185 30.9062L7.1406 30.9688L7.37497 31H7.62497C8.02081 31 8.38539 30.9062 8.71872 30.7188L16 26.8125L23.25 30.7188C23.4375 30.8229 23.625 30.8958 23.8125 30.9375C24 30.9792 24.1875 31 24.375 31C24.875 31 25.3229 30.8646 25.7187 30.5938C26.0729 30.3438 26.3385 30.0208 26.5156 29.625C26.6927 29.2292 26.7396 28.8229 26.6562 28.4062L25.25 19.9375L31.3437 13.8438C32.0104 13.1771 32.1979 12.4167 31.9062 11.5625C31.7604 11.1458 31.5208 10.8021 31.1875 10.5312C30.8541 10.2604 30.4791 10.0938 30.0625 10.0312L21.7187 8.8125L18.0937 1.28125C18.0521 1.17708 18 1.08333 17.9375 1C17.875 0.916667 17.8073 0.833333 17.7343 0.75C17.6614 0.666667 17.5833 0.588542 17.5 0.515625C17.4166 0.442708 17.3281 0.380208 17.2343 0.328125C17.1406 0.276042 17.0468 0.229167 16.9531 0.1875C16.8593 0.145833 16.7604 0.109375 16.6562 0.078125C16.5521 0.046875 16.4427 0.0260417 16.3281 0.015625C16.2135 0.00520833 16.1041 0 16 0Z" fill="#FFC000"/>
<path d="M20.8214 10.6667L16 1L11.1786 10.6667L1 12.2778L8.5 19.7963L6.89286 30L16 25.1667L25.1071 30L23.5 19.7963L31 12.2778L20.8214 10.6667Z" fill="#FFC000"/>
</g>
<defs>
<clipPath id="clip0_51_527">
<rect width="32" height="31" fill="white"/>
</clipPath>
</defs>
</svg>
